<!DOCTYPE svg PUBLIC "-//W3C//DTD SVG 1.1//EN" "http://www.w3.org/Graphics/SVG/1.1/DTD/svg11.dtd">
<!-- Uploaded to: SVG Repo, www.svgrepo.com, Transformed by: SVG Repo Mixer Tools -->
<svg fill="#ffffff" width="64px" height="64px" viewBox="-10.24 -10.24 52.48 52.48" xmlns="http://www.w3.org/2000/svg" stroke="#ffffff">
<g id="SVGRepo_bgCarrier" stroke-width="0"/>
<g id="SVGRepo_tracerCarrier" stroke-linecap="round" stroke-linejoin="round"/>
<g id="SVGRepo_iconCarrier"> <title/> <g data-name="Layer 14" id="Layer_14"> <path d="M22.05,12H22V8.5a5.5,5.5,0,0,0-11,0V12H11A4,4,0,0,0,7,16v9.1A4,4,0,0,0,11,29h11.1A4,4,0,0,0,26,25.05V16A4,4,0,0,0,22.05,12ZM13,8.5a3.5,3.5,0,0,1,7,0V12H13ZM24,25.05A2,2,0,0,1,22.05,27H11A2,2,0,0,1,9,25.05V16A2,2,0,0,1,11,14h11.1A2,2,0,0,1,24,16Z"/> <path d="M16.5,17A3.5,3.5,0,1,0,20,20.5,3.5,3.5,0,0,0,16.5,17Zm0,5A1.5,1.5,0,1,1,18,20.5,1.5,1.5,0,0,1,16.5,22Z"/> </g> </g>
</svg>